HIERARCHY
ROOT hip
{
  OFFSET 0 0 0
  CHANNELS 6 Xposition Yposition Zposition Zrotation Yrotation Xrotation
  JOINT abdomen
  {
    OFFSET 0 20.6881 -0.73152
    CHANNELS 3 Zrotation Xrotation Yrotation
    JOINT chest
    {
      OFFSET 0 11.7043 -0.48768
      CHANNELS 3 Zrotation Xrotation Yrotation
      JOINT neck
      {
        OFFSET 0 22.1894 -2.19456
        CHANNELS 3 Zrotation Xrotation Yrotation
        JOINT head
        {
          OFFSET -0.24384 7.07133 1.2192
          CHANNELS 3 Zrotation Xrotation Yrotation
          JOINT leftEye
          {
            OFFSET 4.14528 8.04674 8.04672
            CHANNELS 3 Zrotation Xrotation Yrotation
            End Site
            {
              OFFSET 1 0 0
            }
          }
          JOINT rightEye
          {
            OFFSET -3.6576 8.04674 8.04672
            CHANNELS 3 Zrotation Xrotation Yrotation
            End Site
            {
              OFFSET 1 0 0
            }
          }
        }
      }
      JOINT rCollar
      {
        OFFSET -2.68224 19.2634 -4.8768
        CHANNELS 3 Zrotation Xrotation Yrotation
        JOINT rShldr
        {
          OFFSET -8.77824 -1.95073 1.46304
          CHANNELS 3 Zrotation Xrotation Yrotation
          JOINT rForeArm
          {
            OFFSET -28.1742 -1.7115 0.48768
            CHANNELS 3 Zrotation Xrotation Yrotation
            JOINT rHand
            {
              OFFSET -22.5879 0.773209 7.07136
              CHANNELS 3 Zrotation Xrotation Yrotation
              JOINT rThumb1
              {
                OFFSET -1.2192 -0.487915 3.41376
                CHANNELS 3 Zrotation Xrotation Yrotation
                JOINT rThumb2
                {
                  OFFSET -3.37035 -0.52449 3.41376
                  CHANNELS 3 Zrotation Xrotation Yrotation
                  End Site
                  {
                    OFFSET -1.78271 -1.18214 1.43049
                  }
                }
              }
              JOINT rIndex1
              {
                OFFSET -7.75947 0.938293 5.60832
                CHANNELS 3 Zrotation Xrotation Yrotation
                JOINT rIndex2
                {
                  OFFSET -2.54057 -0.884171 1.56538
                  CHANNELS 3 Zrotation Xrotation Yrotation
                  End Site
                  {
                    OFFSET -1.62519 -0.234802 1.16502
                  }
                }
              }
              JOINT rMid1
              {
                OFFSET -8.24714 1.18213 3.41376
                CHANNELS 3 Zrotation Xrotation Yrotation
                JOINT rMid2
                {
                  OFFSET -3.10165 -0.590103 1.0647
                  CHANNELS 3 Zrotation Xrotation Yrotation
                  End Site
                  {
                    OFFSET -2.48547 -0.328903 0.83742
                  }
                }
              }
              JOINT rRing1
              {
                OFFSET -8.82822 0.546677 1.51678
                CHANNELS 3 Zrotation Xrotation Yrotation
                JOINT rRing2
                {
                  OFFSET -2.60934 -0.819778 -0.0198488
                  CHANNELS 3 Zrotation Xrotation Yrotation
                  End Site
                  {
                    OFFSET -2.33842 -0.294052 0.168128
                  }
                }
              }
              JOINT rPinky1
              {
                OFFSET -8.27202 -0.0477905 -0.4584
                CHANNELS 3 Zrotation Xrotation Yrotation
                JOINT rPinky2
                {
                  OFFSET -1.82734 -0.647385 -0.700984
                  CHANNELS 3 Zrotation Xrotation Yrotation
                  End Site
                  {
                    OFFSET -1.69225 -0.51767 -0.607171
                  }
                }
              }
            }
          }
        }
      }
      JOINT lCollar
      {
        OFFSET 2.68224 19.2634 -4.8768
        CHANNELS 3 Zrotation Xrotation Yrotation
        JOINT lShldr
        {
          OFFSET 8.77824 -1.95073 1.46304
          CHANNELS 3 Zrotation Xrotation Yrotation
          JOINT lForeArm
          {
            OFFSET 28.1742 -1.7115 0.48768
            CHANNELS 3 Zrotation Xrotation Yrotation
            JOINT lHand
            {
              OFFSET 22.5879 0.773209 7.07136
              CHANNELS 3 Zrotation Xrotation Yrotation
              JOINT lThumb1
              {
                OFFSET 1.2192 -0.487915 3.41376
                CHANNELS 3 Zrotation Xrotation Yrotation
                JOINT lThumb2
                {
                  OFFSET 3.37035 -0.52449 3.41376
                  CHANNELS 3 Zrotation Xrotation Yrotation
                  End Site
                  {
                    OFFSET 1.78271 -1.18214 1.43049
                  }
                }
              }
              JOINT lIndex1
              {
                OFFSET 7.75947 0.938293 5.60832
                CHANNELS 3 Zrotation Xrotation Yrotation
                JOINT lIndex2
                {
                  OFFSET 2.54057 -0.884171 1.56538
                  CHANNELS 3 Zrotation Xrotation Yrotation
                  End Site
                  {
                    OFFSET 1.62519 -0.234802 1.16502
                  }
                }
              }
              JOINT lMid1
              {
                OFFSET 8.24714 1.18213 3.41376
                CHANNELS 3 Zrotation Xrotation Yrotation
                JOINT lMid2
                {
                  OFFSET 3.10165 -0.590103 1.0647
                  CHANNELS 3 Zrotation Xrotation Yrotation
                  End Site
                  {
                    OFFSET 2.48547 -0.328903 0.83742
                  }
                }
              }
              JOINT lRing1
              {
                OFFSET 8.82822 0.546677 1.51678
                CHANNELS 3 Zrotation Xrotation Yrotation
                JOINT lRing2
                {
                  OFFSET 2.60934 -0.819778 -0.0198488
                  CHANNELS 3 Zrotation Xrotation Yrotation
                  End Site
                  {
                    OFFSET 2.33842 -0.294052 0.168128
                  }
                }
              }
              JOINT lPinky1
              {
                OFFSET 8.27202 -0.0477905 -0.4584
                CHANNELS 3 Zrotation Xrotation Yrotation
                JOINT lPinky2
                {
                  OFFSET 1.82734 -0.647385 -0.700984
                  CHANNELS 3 Zrotation Xrotation Yrotation
                  End Site
                  {
                    OFFSET 1.69225 -0.51767 -0.607171
                  }
                }
              }
            }
          }
        }
      }
    }
  }
  JOINT rButtock
  {
    OFFSET -8.77824 4.35084 1.2192
    CHANNELS 3 Zrotation Xrotation Yrotation
    JOINT rThigh
    {
      OFFSET 0 -1.70687 -2.19456
      CHANNELS 3 Zrotation Xrotation Yrotation
      JOINT rShin
      {
        OFFSET 0 -36.8199 0.73152
        CHANNELS 3 Zrotation Xrotation Yrotation
        JOINT rFoot
        {
          OFFSET 0.73152 -45.1104 -5.12064
          CHANNELS 3 Zrotation Xrotation Yrotation
          End Site
          {
            OFFSET -1.1221 -3.69964 12.103
          }
        }
      }
    }
  }
  JOINT lButtock
  {
    OFFSET 8.77824 4.35084 1.2192
    CHANNELS 3 Zrotation Xrotation Yrotation
    JOINT lThigh
    {
      OFFSET 0 -1.70687 -2.19456
      CHANNELS 3 Zrotation Xrotation Yrotation
      JOINT lShin
      {
        OFFSET 0 -36.8199 0.73152
        CHANNELS 3 Zrotation Xrotation Yrotation
        JOINT lFoot
        {
          OFFSET -0.73152 -45.1104 -5.12064
          CHANNELS 3 Zrotation Xrotation Yrotation
          End Site
          {
            OFFSET 1.1221 -3.69964 12.103
          }
        }
      }
    }
  }
}
MOTION
Frames:	6
Frame Time:	0.03333
0.0 0.0 0.0 0.0 0.0 0.0 0.0 0.0 0.0 0.0 0.0 0.0 0.0 0.0 0.0 0.0 0.0 0.0 0.0 0.0 0.0 0.0 0.0 0.0 0.0 0.0 0.0 0.0 0.0 0.0 0.0 0.0 0.0 0.0 0.0 0.0 0.0 0.0 0.0 0.0 0.0 0.0 0.0 0.0 0.0 0.0 0.0 0.0 0.0 0.0 0.0 0.0 0.0 0.0 0.0 0.0 0.0 0.0 0.0 0.0 0.0 0.0 0.0 0.0 0.0 0.0 0.0 0.0 0.0 0.0 0.0 0.0 0.0 0.0 0.0 0.0 0.0 0.0 0.0 0.0 0.0 0.0 0.0 0.0 0.0 0.0 0.0 0.0 0.0 0.0 0.0 0.0 0.0 0.0 0.0 0.0 0.0 0.0 0.0 0.0 0.0 0.0 0.0 0.0 0.0 0.0 0.0 0.0 0.0 0.0 0.0 0.0 0.0 0.0 0.0 0.0 0.0 0.0 0.0 0.0 0.0 0.0 0.0 0.0 0.0 0.0 0.0 0.0 0.0 0.0 0.0 0.0
0.0835 62.2537 0.1093 -179.900936 0.160326 179.137922 -1.219155 -0.260281 133.132618 -7.605776 -9.663333 135.93482 -5.36549 -18.833349 -21.403928 -25.993011 -26.130407 -45.314998 -111.693253 -13.733475 -20.131398 -12.374215 -2.005905 18.346943 58.365464 39.728126 22.194585 -156.162507 23.30876 169.187658 -177.412494 43.230643 -11.238274 154.19443 -50.694751 63.942765 -152.478555 12.66238 48.104003 -66.536773 19.246614 -108.034183 -28.202502 32.501306 -107.618149 150.705513 32.846148 -134.055664 -41.584893 2.901134 -116.593201 8.440985 26.361832 -1.730117 83.869721 17.571961 -75.691923 -88.726936 -63.953818 -119.631827 43.558256 7.97561 -57.653508 -164.622363 18.285601 -130.054149 -66.15388 37.084746 -12.439729 170.240692 -29.83815 -168.679245 178.102897 7.696715 20.086687 -36.340606 -46.539006 25.391221 -175.797557 -3.184606 -75.832513 99.194355 -50.63932 -166.40222 139.270442 18.531253 -59.457325 -10.428339 -52.117473 -45.222253 -39.349914 -15.979935 -58.29021 -14.900826 -26.339162 65.903459 88.548083 50.891049 92.937613 139.555541 -8.464909 -179.627813 178.570558 25.390471 40.550592 159.12142 39.585643 145.241854 53.436286 -0.136763 89.916981 0.60385 54.567554 -1.205087 5.003675 3.384065 143.586524 -73.742274 14.443083 96.164759 50.337802 5.4103 93.984564 -0.712733 49.697625 178.419479 -7.244807 1.723407 -125.066785 9.868782 -66.864006 -170.967725
-0.9204 61.0726 2.7693 172.421586 -22.963254 -174.216344 -11.297964 13.521943 -109.691205 6.99163 5.542459 119.307449 -4.669238 31.052598 -88.997537 48.942115 -2.597726 55.623807 24.197408 -5.540513 -25.440799 4.24358 0.37669 10.140792 -151.268637 -35.16971 177.730647 -95.116167 -67.245598 -98.255376 -175.55517 -50.718455 -130.278164 -0.397119 28.763362 5.098962 168.415678 -20.29413 89.975008 -153.480792 -15.465644 98.71843 -11.949162 -7.013562 -5.083311 8.502993 3.92302 15.90141 -174.582631 -43.636798 156.966957 -164.776289 -83.588484 166.100593 -146.962554 1.643314 -170.15567 -137.878967 -7.28248 -164.03341 -144.013142 54.619826 -157.135691 40.776968 23.434179 8.494377 162.427146 -53.699896 -164.840315 -138.091565 11.881788 153.315129 1.175783 8.406983 -80.253531 6.757368 -22.626062 1.616664 8.405157 -3.910534 4.42075 -23.522792 -19.408889 5.42734 138.980613 49.740601 -108.181391 -16.364936 -48.012033 -4.398668 147.132405 55.560508 -113.063717 123.244879 38.427335 -100.936359 -102.029206 -84.831811 -60.987361 -72.700242 -52.88653 -118.201415 13.480005 -4.83598 36.307685 136.818807 26.254212 -168.786674 12.843081 6.08464 20.585856 -74.778523 -32.451883 -127.047625 -75.473352 10.315093 -27.653809 -5.907369 53.635828 117.228854 -1.537106 12.546763 -1.37269 26.887141 -18.588674 -104.817918 -43.725676 -23.448492 115.52423 -113.709597 -36.270957 -7.513227
-0.9414 56.901199999999996 4.5273 169.221861 -20.31279 -173.101245 -15.691381 11.277965 -105.619287 6.455035 6.38169 111.334094 8.489196 21.185333 61.944901 -39.072652 -1.498346 -98.301153 3.508107 0.389517 12.667721 3.529589 -0.821908 -26.209267 -143.486164 18.359341 152.929373 -20.378999 25.575036 7.217964 -177.451647 20.226267 -137.330452 -11.472673 38.83009 8.813763 -165.193079 -9.207038 83.974827 -153.58699 -11.489692 45.324547 3.385575 -8.489593 -3.776837 -172.329174 -21.353516 77.678152 15.267156 -53.463055 -10.745441 170.989655 -63.862693 125.676996 11.762445 0.475391 -0.772538 9.230971 59.160055 2.92449 -154.54091 44.30752 -143.038015 -94.635175 -63.764598 -80.146607 -5.126151 -16.215653 2.190695 -66.738246 12.974181 32.867171 -56.830561 38.894712 -62.730573 19.27168 15.993281 -6.459268 173.372735 -31.65252 -95.682179 -12.611487 -51.211275 -2.518378 135.909184 14.312655 -120.125812 5.595154 -6.507747 18.25315 15.501373 -71.085112 11.453865 77.271433 -77.212453 130.125891 0.679688 11.071437 -1.206519 36.113095 -45.101265 78.653447 174.809823 20.937525 137.562072 -2.206078 -48.719521 30.310906 43.200149 8.791274 64.866555 -106.497542 11.813776 -59.192032 -45.550811 66.771407 140.478496 -41.393159 -77.303742 -136.243145 -178.477506 66.691879 -7.37416 -129.520674 56.76882 -139.431242 -55.980708 -0.517079 -123.556308 175.69464 43.203904 101.49428
-1.4607 54.2436 5.964499999999999 169.07681 -19.645124 -172.955286 -17.737291 9.080155 -105.95886 4.554152 6.320362 112.018589 2.913849 22.623652 84.750577 -37.266211 2.932893 -123.869233 -10.298075 -4.412818 46.299829 -2.013598 0.81596 -44.114601 -4.465781 32.823033 9.889487 -134.23523 14.444024 136.027305 -95.019657 -38.086425 -133.358985 26.378723 -53.390772 23.704399 9.55453 0.308626 -15.987948 -95.648714 15.185368 96.40905 -157.658713 -35.614241 117.724229 -2.199406 11.844093 -1.763117 18.436906 -45.432437 -14.564781 -6.691004 -13.463355 10.972571 -85.328282 -60.718003 -113.133269 103.944286 81.830186 -86.254588 -117.474002 -39.449084 -121.536797 -21.304471 25.346589 26.386012 0.494157 -74.810229 13.831717 -89.852518 33.362345 98.791915 -173.432597 -23.00391 -42.780551 158.935153 22.72158 -140.567747 3.54353 21.855004 9.269178 139.645186 -34.022283 -110.289925 139.941976 -74.248836 -152.335965 -72.442698 -80.940142 12.42665 3.196709 -2.783626 3.66716 51.547521 44.928023 -58.381788 -30.943704 33.115782 17.073717 5.636251 71.217014 35.080284 155.608278 32.022325 147.624236 -24.670948 -61.446105 22.356737 27.672745 2.345527 42.01101 -94.910652 -8.018947 -18.319503 65.055645 45.363684 22.174495 -104.255119 65.357964 41.481913 -19.279726 0.864244 -25.491162 29.741418 17.426803 80.060437 46.540628 24.995799 134.615955 98.441078 27.093058 163.362811
-1.8848 54.061899999999994 7.2139 169.883156 -19.389516 -173.118666 -21.051193 9.456579 51.40647 -0.061273 -9.534938 -42.125683 -1.287714 35.704169 -170.287832 10.664258 46.516639 120.520437 0.954439 0.539979 58.997767 3.453583 -0.800367 -26.08866 -1.441437 21.88172 3.466309 -127.483971 11.678764 135.160706 -7.505267 -27.907027 -69.236614 147.135198 -50.190961 135.585004 -38.655882 47.562089 15.274825 -151.72768 -34.798559 82.381546 -161.538475 -35.805998 115.794049 4.805848 -6.299129 33.026319 -8.783111 24.460742 6.329887 -107.48995 -76.064575 -139.445783 -132.80266 -42.498058 -151.219146 -170.520762 48.60773 -160.175476 -96.802177 -53.793204 -113.067773 154.266199 -73.986741 176.349143 5.58703 -55.553714 10.680088 109.702312 -14.469067 109.705789 78.508942 35.734221 70.16656 176.12439 -49.429402 -156.723069 174.177319 -19.944863 -96.242494 113.492025 13.016701 -39.535947 7.47085 18.880138 -7.542109 164.474323 -8.461727 -100.375787 33.175722 50.887056 -38.218096 178.239639 -48.879006 -137.424641 106.542637 4.906894 156.162583 76.614629 -40.050213 159.449227 -1.026175 -14.442962 4.955833 4.27014 15.50137 12.392285 41.131404 22.930446 36.375157 -117.354236 -9.471704 -65.005899 13.90997 69.703818 72.356479 -124.763793 47.755379 60.416025 -21.385221 -1.478316 -38.523366 25.718343 28.263407 -19.475549 -29.425051 30.708646 133.295675 89.32628 -61.253439 -9.989603
